<?xml version="1.0" standalone="no"?>
<!DOCTYPE svg PUBLIC "-//W3C//DTD SVG 20010904//EN"
 "http://www.w3.org/TR/2001/REC-SVG-20010904/DTD/svg10.dtd">
<svg version="1.0" xmlns="http://www.w3.org/2000/svg"
 width="1024.000000pt" height="1024.000000pt" viewBox="0 0 1024.000000 1024.000000"
 preserveAspectRatio="xMidYMid meet">

<g transform="translate(0.000000,1024.000000) scale(0.100000,-0.100000)"
fill="#000000" stroke="none">
<path d="M1934 10229 c-157 -8 -337 -36 -489 -76 -528 -137 -995 -520 -1230
-1008 -128 -266 -185 -503 -205 -862 -13 -238 -13 -6030 0 -6291 19 -373 71
-610 193 -872 92 -197 196 -347 357 -514 203 -210 399 -341 674 -451 218 -87
424 -127 745 -145 242 -13 6015 -13 6266 0 403 22 628 74 900 209 325 161 570
377 766 674 149 225 242 478 289 782 40 261 41 423 38 3615 -4 2836 -5 3074
-21 3184 -24 161 -61 330 -98 440 -37 112 -141 330 -204 427 -180 278 -440
513 -735 663 -284 145 -529 206 -909 226 -211 11 -6130 11 -6337 -1z m6415
-2896 c-201 -193 -916 -908 -2014 -2014 -934 -940 -1141 -1135 -1506 -1419
-432 -337 -858 -559 -1219 -637 -131 -28 -377 -25 -488 6 -95 27 -224 90 -303
148 -128 95 -262 270 -326 426 -39 94 -81 246 -95 344 -21 144 -16 454 10 607
110 644 439 1227 877 1556 248 187 495 269 775 257 212 -9 415 -64 715 -194
605 -262 691 -287 965 -286 211 1 387 38 665 140 439 162 910 428 1708 965
210 141 386 257 391 257 4 1 -65 -70 -155 -156z m-637 -840 c-115 -170 -241
-418 -290 -573 -51 -159 -65 -257 -60 -410 6 -158 18 -203 127 -442 38 -84 78
-184 90 -222 86 -280 -111 -498 -405 -447 -91 16 -306 97 -473 178 -167 81
-239 145 -266 238 -30 102 -3 204 85 320 25 33 207 251 405 485 436 515 802
930 821 930 3 0 -13 -26 -34 -57z"/>
</g>
</svg>
